<?xml version="1.0" encoding="utf-8"?>
<!-- Generator: Adobe Illustrator 27.5.0, SVG Export Plug-In . SVG Version: 6.00 Build 0)  -->
<svg version="1.1" xmlns="http://www.w3.org/2000/svg" xmlns:xlink="http://www.w3.org/1999/xlink" x="0px" y="0px"
	 viewBox="0 0 500 500" style="enable-background:new 0 0 500 500;" xml:space="preserve">
<g id="BACKGROUND">
</g>
<g id="OBJECTS">
	<g>
		<path style="opacity:0.27;fill:#434E82;" d="M346.212,426.785H138.169c-2.545,0-4.608-2.063-4.608-4.608l0,0
			c0-2.545,2.063-4.608,4.608-4.608h208.043c2.545,0,4.608,2.063,4.608,4.608l0,0C350.82,424.722,348.757,426.785,346.212,426.785z"
			/>
		
			<path style="fill:#5F6FB8;stroke:#000000;stroke-width:0.5;stroke-linecap:round;stroke-linejoin:round;stroke-miterlimit:10;" d="
			M333.573,72.621c0-13.181-10.685-23.866-23.866-23.866H177.369c-13.181,0-23.866,10.685-23.866,23.866v11.862h180.069V72.621z"/>
		
			<rect x="153.503" y="84.483" style="fill:#434E82;stroke:#000000;stroke-width:0.5;stroke-linecap:round;stroke-linejoin:round;stroke-miterlimit:10;" width="180.069" height="292.828"/>
		
			<path style="fill:#5F6FB8;stroke:#000000;stroke-width:0.5;stroke-linecap:round;stroke-linejoin:round;stroke-miterlimit:10;" d="
			M153.503,377.311v20.436c0,13.181,10.685,23.866,23.866,23.866h132.338c13.181,0,23.866-10.685,23.866-23.866v-20.436H153.503z"/>
		
			<path style="fill:#5F6FB8;stroke:#000000;stroke-width:0.5;stroke-linecap:round;stroke-linejoin:round;stroke-miterlimit:10;" d="
			M256.276,68.843H230.8c-1.323,0-2.396-1.073-2.396-2.396l0,0c0-1.323,1.073-2.396,2.396-2.396h25.475
			c1.323,0,2.396,1.073,2.396,2.396l0,0C258.672,67.77,257.599,68.843,256.276,68.843z"/>
		
			<circle style="fill:#5F6FB8;stroke:#000000;stroke-width:0.5;stroke-linecap:round;stroke-linejoin:round;stroke-miterlimit:10;" cx="243.538" cy="398.835" r="12.037"/>
		
			<rect x="192.116" y="162.288" style="fill:#FFFFFF;stroke:#000000;stroke-width:0.5;stroke-linecap:round;stroke-linejoin:round;stroke-miterlimit:10;" width="102.845" height="102.845"/>
		
			<path style="fill:#B85FAB;stroke:#000000;stroke-width:0.5;stroke-linecap:round;stroke-linejoin:round;stroke-miterlimit:10;" d="
			M282.955,318.666h-78.835c-5.727,0-10.37-4.643-10.37-10.37l0,0c0-5.727,4.643-10.37,10.37-10.37h78.835
			c5.727,0,10.37,4.643,10.37,10.37l0,0C293.325,314.023,288.682,318.666,282.955,318.666z"/>
		<text transform="matrix(1 0 0 1 229.0538 313.5866)" style="fill:#FFFFFF; font-family:'BebasKai'; font-size:17.6539px;">SCAN</text>
		
			<polygon style="fill:#B85FAB;stroke:#000000;stroke-width:0.5;stroke-linecap:round;stroke-linejoin:round;stroke-miterlimit:10;" points="
			212.762,150.541 185.124,150.541 181.618,150.541 181.618,154.047 181.618,181.684 185.124,181.684 185.124,154.047 
			212.762,154.047 		"/>
		
			<polygon style="fill:#B85FAB;stroke:#000000;stroke-width:0.5;stroke-linecap:round;stroke-linejoin:round;stroke-miterlimit:10;" points="
			275.489,277.255 303.127,277.255 306.633,277.255 306.633,273.749 306.633,246.111 303.127,246.111 303.127,273.749 
			275.489,273.749 		"/>
		<g>
			<g>
				<path style="stroke:#000000;stroke-width:0.5;stroke-linecap:round;stroke-linejoin:round;stroke-miterlimit:10;" d="
					M199.188,198.087c0-9.855,0-19.685,0-29.534c9.846,0,19.676,0,29.534,0c0,9.832,0,19.671,0,29.534
					C218.893,198.087,209.055,198.087,199.188,198.087z M203.423,172.775c0,7.049,0,14.07,0,21.083c7.046,0,14.068,0,21.083,0
					c0-7.041,0-14.054,0-21.083C217.474,172.775,210.462,172.775,203.423,172.775z"/>
				<path style="stroke:#000000;stroke-width:0.5;stroke-linecap:round;stroke-linejoin:round;stroke-miterlimit:10;" d="
					M287.882,198.097c-9.854,0-19.684,0-29.533,0c0-9.845,0-19.675,0-29.534c9.831,0,19.669,0,29.533,0
					C287.882,178.39,287.882,188.229,287.882,198.097z M283.666,172.785c-7.051,0-14.072,0-21.083,0c0,7.047,0,14.068,0,21.082
					c7.042,0,14.054,0,21.083,0C283.666,186.835,283.666,179.822,283.666,172.785z"/>
				<path style="stroke:#000000;stroke-width:0.5;stroke-linecap:round;stroke-linejoin:round;stroke-miterlimit:10;" d="
					M199.197,227.706c9.855,0,19.685,0,29.534,0c0,9.846,0,19.676,0,29.534c-9.832,0-19.67,0-29.534,0
					C199.197,247.412,199.197,237.573,199.197,227.706z M224.509,231.941c-7.049,0-14.07,0-21.083,0c0,7.046,0,14.068,0,21.083
					c7.041,0,14.054,0,21.083,0C224.509,245.993,224.509,238.98,224.509,231.941z"/>
				<path style="stroke:#000000;stroke-width:0.5;stroke-linecap:round;stroke-linejoin:round;stroke-miterlimit:10;" d="
					M237.206,185.442c0-2.803,0-5.606,0-8.449c-1.414,0-2.803,0-4.211,0c0-2.828,0-5.616,0-8.432c7.018,0,14.04,0,21.085,0
					c0,2.793,0,5.589,0,8.413c-1.388,0-2.768,0-4.175,0c0,1.415,0,2.803,0,4.231c1.386,0,2.775,0,4.181,0c0,2.828,0,5.616,0,8.43
					c-1.388,0-2.776,0-4.204,0c0-1.389,0-2.777,0-4.192c-1.419,0-2.799,0-4.218,0c0-1.415,0-2.803,0-4.212c-1.419,0-2.799,0-4.218,0
					c0,1.38,0,2.769,0,4.201c-1.442,0-2.846,0-4.249,0C237.196,185.432,237.206,185.442,237.206,185.442z M241.443,176.96
					c1.415,0,2.802,0,4.181,0c0-1.413,0-2.8,0-4.181c-1.407,0-2.786,0-4.181,0C241.443,174.176,241.443,175.554,241.443,176.96z"/>
				<path style="stroke:#000000;stroke-width:0.5;stroke-linecap:round;stroke-linejoin:round;stroke-miterlimit:10;" d="
					M237.197,244.587c0,1.395,0,2.789,0,4.223c1.414,0,2.803,0,4.218,0c0,1.419,0,2.799,0,4.218c1.414,0,2.803,0,4.214,0
					c0,1.427,0,2.816,0,4.223c-4.205,0-8.402,0-12.626,0c0-4.201,0-8.405,0-12.654c1.397,0,2.801,0,4.204,0
					C237.207,244.597,237.197,244.587,237.197,244.587z"/>
				<path style="stroke:#000000;stroke-width:0.5;stroke-linecap:round;stroke-linejoin:round;stroke-miterlimit:10;" d="
					M211.855,206.559c-2.802,0-5.605,0-8.446,0c0,1.412,0,2.8,0,4.209c-1.418,0-2.798,0-4.207,0c0-2.786,0-5.582,0-8.404
					c4.192,0,8.396,0,12.643,0c0,1.399,0,2.802,0,4.205L211.855,206.559z"/>
				<path style="stroke:#000000;stroke-width:0.5;stroke-linecap:round;stroke-linejoin:round;stroke-miterlimit:10;" d="
					M220.304,206.569c0-1.394,0-2.788,0-4.207c2.81,0,5.604,0,8.423,0c0,1.384,0,2.771,0,4.196c-2.814,0-5.624,0-8.433,0
					C220.294,206.559,220.304,206.569,220.304,206.569z"/>
				<path style="stroke:#000000;stroke-width:0.5;stroke-linecap:round;stroke-linejoin:round;stroke-miterlimit:10;" d="
					M283.701,227.706c1.397,0,2.776,0,4.181,0c0,1.39,0,2.777,0,4.187c-1.387,0-2.774,0-4.181,0
					C283.701,230.506,283.701,229.127,283.701,227.706z"/>
				<path style="stroke:#000000;stroke-width:0.5;stroke-linecap:round;stroke-linejoin:round;stroke-miterlimit:10;" d="
					M249.882,198.118c0-1.393,0-2.786,0-4.206c1.4,0,2.787,0,4.198,0c0,1.383,0,2.77,0,4.196c-1.404,0-2.806,0-4.208,0
					L249.882,198.118z"/>
				<path style="stroke:#000000;stroke-width:0.5;stroke-linecap:round;stroke-linejoin:round;stroke-miterlimit:10;" d="
					M279.461,240.373c0-1.393,0-2.786,0-4.206c1.4,0,2.787,0,4.197,0c0,1.383,0,2.769,0,4.196c-1.404,0-2.806,0-4.207,0
					C279.451,240.363,279.461,240.373,279.461,240.373z"/>
				<path style="stroke:#000000;stroke-width:0.5;stroke-linecap:round;stroke-linejoin:round;stroke-miterlimit:10;" d="
					M275.225,210.793c1.394,0,2.787,0,4.206,0c0,1.402,0,2.789,0,4.216c-1.402,0-2.804,0-4.206,0l0.01,0.01c0-1.412,0-2.824,0-4.236
					L275.225,210.793z"/>
				<path style="stroke:#000000;stroke-width:0.5;stroke-linecap:round;stroke-linejoin:round;stroke-miterlimit:10;" d="
					M262.55,253.037c0,1.393,0,2.786,0,4.206c-1.4,0-2.787,0-4.197,0c0-1.383,0-2.769,0-4.196c1.404,0,2.806,0,4.207,0
					L262.55,253.037z"/>
				<path style="stroke:#000000;stroke-width:0.5;stroke-linecap:round;stroke-linejoin:round;stroke-miterlimit:10;" d="
					M287.882,257.254c-1.404,0-2.782,0-4.181,0c0-1.394,0-2.773,0-4.181c1.38,0,2.767,0,4.181,0
					C287.882,254.449,287.882,255.836,287.882,257.254z"/>
				<path style="stroke:#000000;stroke-width:0.5;stroke-linecap:round;stroke-linejoin:round;stroke-miterlimit:10;" d="
					M220.275,189.645c-4.223,0-8.419,0-12.633,0c0-4.212,0-8.408,0-12.632c4.199,0,8.404,0,12.633,0
					C220.275,181.209,220.275,185.413,220.275,189.645z"/>
				<path style="stroke:#000000;stroke-width:0.5;stroke-linecap:round;stroke-linejoin:round;stroke-miterlimit:10;" d="
					M266.796,189.636c0-4.221,0-8.417,0-12.632c4.212,0,8.408,0,12.632,0c0,4.198,0,8.402,0,12.632
					C275.233,189.636,271.029,189.636,266.796,189.636z"/>
				<path style="stroke:#000000;stroke-width:0.5;stroke-linecap:round;stroke-linejoin:round;stroke-miterlimit:10;" d="
					M207.639,248.793c0-4.222,0-8.418,0-12.633c4.212,0,8.408,0,12.632,0c0,4.198,0,8.403,0,12.633
					C216.076,248.793,211.872,248.793,207.639,248.793z"/>
			</g>
			<g>
				<polygon style="stroke:#000000;stroke-width:0.5;stroke-linecap:round;stroke-linejoin:round;stroke-miterlimit:10;" points="
					237.206,244.587 237.197,244.587 237.207,244.597 237.207,244.587 				"/>
				<polygon style="stroke:#000000;stroke-width:0.5;stroke-linecap:round;stroke-linejoin:round;stroke-miterlimit:10;" points="
					262.56,253.047 262.56,253.037 262.55,253.037 				"/>
				<polygon style="stroke:#000000;stroke-width:0.5;stroke-linecap:round;stroke-linejoin:round;stroke-miterlimit:10;" points="
					254.099,219.245 254.11,219.245 254.11,219.235 				"/>
				<polygon style="stroke:#000000;stroke-width:0.5;stroke-linecap:round;stroke-linejoin:round;stroke-miterlimit:10;" points="
					237.196,185.432 237.196,185.442 237.206,185.442 				"/>
				<polygon style="stroke:#000000;stroke-width:0.5;stroke-linecap:round;stroke-linejoin:round;stroke-miterlimit:10;" points="
					279.45,223.461 279.45,223.471 279.46,223.471 				"/>
				<polygon style="stroke:#000000;stroke-width:0.5;stroke-linecap:round;stroke-linejoin:round;stroke-miterlimit:10;" points="
					279.451,240.363 279.451,240.373 279.461,240.373 				"/>
				<polygon style="stroke:#000000;stroke-width:0.5;stroke-linecap:round;stroke-linejoin:round;stroke-miterlimit:10;" points="
					249.872,198.108 249.872,198.118 249.882,198.118 				"/>
				<path style="stroke:#000000;stroke-width:0.5;stroke-linecap:round;stroke-linejoin:round;stroke-miterlimit:10;" d="
					M237.206,227.697c0-1.395,0-2.789,0-4.223c1.406,0,2.794,0,4.202,0c0-1.419,0-2.799,0-4.218c-1.382,0-2.77,0-4.182,0
					c0-2.836,0-5.632,0-8.455c2.795,0,5.583,0,8.41,0c0-1.414,0-2.803,0-4.214c4.244,0,8.449,0,12.68,0c0,2.794,0,5.582,0,8.41
					c2.823,0,5.619,0,8.458,0c0,1.438,0,2.838,0,4.237c-4.046,0.002-8.092,0.004-12.138,0.006c-0.175,0-0.351,0.004-0.526,0.006
					c0,2.798,0,5.597,0,8.42c-1.414,0-2.802,0-4.229,0c0-1.391,0-2.779,0-4.184c-1.417,0-2.795,0-4.211,0v16.904
					c7.052,0,14.065,0,21.087,0c0,1.407,0,2.795,0,4.222c-2.82,0-5.616,0-8.409,0c0,1.419,0,2.799,0,4.217c1.407,0,2.795,0,4.213,0
					c0,1.43,0,2.821,0,4.212c2.808,0,5.616,0,8.462,0c0,1.443,0,2.831,0,4.212c1.419,0,2.799,0,4.217,0c0-2.816,0-5.613,0-8.448
					c4.244,0,8.449,0,12.649,0c0-1.418,0-2.798,0-4.217c-2.816,0-5.612,0-8.438,0c0-1.43,0-2.821,0-4.212c-1.398,0-2.797,0-4.196,0
					c0-2.846,0-5.641,0-8.473c1.411,0,2.798,0,4.196,0c0-2.835,0-5.632,0-8.429c-1.399,0-2.799,0-4.225,0c0-2.854,0-5.653,0-8.452
					c-1.39,0-2.78,0-4.195,0c0-1.411,0-2.798,0-4.236c1.398,0,2.796,0,4.195,0c0-1.4,0-2.799,0-4.238c-1.431,0-2.819,0-4.233,0
					c0-1.419,0-2.799,0-4.216c-7.048,0-14.069,0-21.12,0c0-1.429,0-2.82,0-4.211c-1.399,0-2.799,0-4.235,0c0-2.85,0-5.646,0-8.439
					c-1.418,0-2.797,0-4.214,0c0,2.814,0,5.61,0,8.408c-1.426,0-2.814,0-4.221,0c0-0.167,0-0.309,0-0.451
					c-0.002-4.065-0.004-8.13-0.006-12.194c-1.399,0-2.799,0-4.232,0c0,11.286,0,22.53,0,33.812c-4.238,0-8.442,0-12.647,0
					c0,1.417,0,2.797,0,4.214c4.221,0,8.425,0,12.668,0c0,1.425,0,2.814,0,4.23c1.429,0,2.82,0,4.211,0 M266.751,210.763
					c-1.377,0-2.764,0-4.181,0c0-1.404,0-2.782,0-4.18c1.394,0,2.773,0,4.181,0C266.751,207.962,266.751,209.35,266.751,210.763z
					 M254.088,236.122c-1.394,0-2.773,0-4.181,0c0-1.38,0-2.767,0-4.18c1.377,0,2.764,0,4.181,0
					C254.088,233.345,254.088,234.724,254.088,236.122z M258.355,227.714c1.383,0,2.769,0,4.195,0c0,1.401,0,2.799,0,4.197
					c-1.39,0-2.78,0-4.195,0C258.355,230.512,258.355,229.125,258.355,227.714z M270.979,236.118c-2.79,0-5.584,0-8.418,0
					c0-1.399,0-2.797,0-4.196c2.797,0,5.594,0,8.418,0C270.979,233.32,270.979,234.707,270.979,236.118z M270.979,223.441
					c-1.382,0-2.769,0-4.195,0c0-1.401,0-2.799,0-4.197c1.39,0,2.78,0,4.195,0C270.979,220.644,270.979,222.03,270.979,223.441z"/>
				<polygon style="stroke:#000000;stroke-width:0.5;stroke-linecap:round;stroke-linejoin:round;stroke-miterlimit:10;" points="
					275.236,210.784 275.225,210.784 275.225,210.793 				"/>
				<polygon style="stroke:#000000;stroke-width:0.5;stroke-linecap:round;stroke-linejoin:round;stroke-miterlimit:10;" points="
					275.225,215.009 275.225,215.019 275.236,215.019 				"/>
			</g>
		</g>
	</g>
	<path style="opacity:0.27;fill:#434E82;" d="M126.638,451.246H62.057c-2.545,0-4.608-2.063-4.608-4.608l0,0
		c0-2.545,2.063-4.608,4.608-4.608h64.581c2.545,0,4.608,2.063,4.608,4.608l0,0C131.246,449.183,129.183,451.246,126.638,451.246z"
		/>
	<path style="opacity:0.27;fill:#434E82;" d="M437.943,437.899H319.899c-2.545,0-4.608-2.063-4.608-4.608l0,0
		c0-2.545,2.063-4.608,4.608-4.608h118.044c2.545,0,4.608,2.063,4.608,4.608l0,0C442.551,435.836,440.488,437.899,437.943,437.899z"
		/>
	<g>
		
			<path style="fill:#B85FAB;stroke:#000000;stroke-width:0.5;stroke-linecap:round;stroke-linejoin:round;stroke-miterlimit:10;" d="
			M145.326,143.925c0.056-0.014,0.308,0.014,0.689,0.075c1.804,0.29,6.501,1.342,7.022,2.438c0.632,1.327,1.517,3.981,1.264,4.803
			c-0.253,0.822-1.201,3.413-1.201,3.413s11.736,9.331,12.642,12.501c0.906,3.17,5.208,66.906,4.981,69.17
			c-0.226,2.264-4.076,21.283-4.981,22.415c-0.906,1.132-2.943,2.943-2.943,2.943s0.226,11.547-0.679,12
			c-0.906,0.453-23.986,4.075-26.031,4.302c-2.045,0.226-23.576,1.811-23.576,1.811s-1.719-7.472-1.414-8.151
			c0.304-0.679-0.036-24.679-0.036-24.679s-14.829,9.736-17.773,8.83c-2.943-0.906-6.566-7.472-7.019-8.377
			c-0.453-0.906-7.332-16.57-7.332-16.933s1.936-0.605,2.903-0.968c0.968-0.363,0.968-5.08,1.089-5.685
			c0.121-0.605,5.685-8.105,7.016-11.008c1.331-2.903,15.725-41.37,19.354-44.152c3.629-2.782,14.445-8.709,14.445-8.709
			s0.771-5.081,2.114-6.774c1.343-1.694,12.298-9.258,12.748-9.846"/>
		
			<path style="fill:#FFC6C2;stroke:#000000;stroke-width:0.5;stroke-linecap:round;stroke-linejoin:round;stroke-miterlimit:10;" d="
			M142.426,119.164l3.841,32.8c0,0-9.525,8.987-11.83,10.447c-2.304,1.46-3.226,1.613-3.226,1.613s0.384-12.598,0.307-15.517
			c-0.077-2.919-1.152-8.987-1.229-9.218c-0.077-0.23,8.68-19.357,8.68-19.357"/>
		
			<path style="fill:#FFC6C2;stroke:#000000;stroke-width:0.5;stroke-linecap:round;stroke-linejoin:round;stroke-miterlimit:10;" d="
			M142.426,133.682c-2.612,5.3-9.064,10.217-14.749,11.215c-5.684,0.999-8.68-3.687-8.68-3.687l-5.531-12.982
			c0,0,0.231-11.906,8.988-16.592c8.757-4.686,13.904-1.306,15.363,0.538c1.46,1.843,2.842,5.223,2.842,5.223"/>
		
			<path style="fill:#FFC6C2;stroke:#000000;stroke-width:0.5;stroke-linecap:round;stroke-linejoin:round;stroke-miterlimit:10;" d="
			M139.507,121.546c0,0,0.691-2.381,2.919-2.996c2.228-0.614,4.378,2.919,3.303,5.761c-1.076,2.842-4.532,3.687-4.532,3.687"/>
		
			<line style="fill:#FABB9B;stroke:#000000;stroke-width:0.5;stroke-linecap:round;stroke-linejoin:round;stroke-miterlimit:10;" x1="140.883" y1="125.087" x2="142.426" y2="122.785"/>
		
			<polyline style="fill:#FA7D64;stroke:#000000;stroke-width:0.5;stroke-linecap:round;stroke-linejoin:round;stroke-miterlimit:10;" points="
			122.008,128.907 122.521,137.246 124.766,136.22 		"/>
		<path style="fill:#FA7D64;" d="M131.277,131.473c0,1.045-0.847,1.892-1.893,1.892c-1.045,0-1.892-0.847-1.892-1.892
			s0.847-1.893,1.892-1.893C130.43,129.58,131.277,130.428,131.277,131.473z"/>
		<path style="fill:#FA7D64;" d="M121.077,134.969c0,1.045-0.847,1.892-1.892,1.892c-1.045,0-1.893-0.847-1.893-1.892
			s0.847-1.892,1.893-1.892C120.23,133.077,121.077,133.924,121.077,134.969z"/>
		
			<path style="fill:#5F6FB8;stroke:#000000;stroke-width:0.5;stroke-linecap:round;stroke-linejoin:round;stroke-miterlimit:10;" d="
			M115.139,132.153c0,0-6.397,0.336-6.566-3.247c-0.17-3.582,3.396-2.733,1.698-6.469c-1.698-3.736-5.01-8.491-0.425-12.481
			c4.585-3.991,9.38-3.141,12.162-2.292c2.782,0.849,3.688,1.189,5.485-0.34c1.797-1.528,5.278-2.208,7.401-1.528
			c2.123,0.679,3.651,2.855,5.094,3.465s3.255,1.969,2.774,4.091c-0.481,2.123,0.368,3.906,1.472,4.16
			c1.104,0.255,2.802,0.764,3.057,3.311c0.255,2.547-2.374,4.878-2.374,4.878s2.205-4.624-0.512-6.152
			c-2.717-1.528-4.585-0.34-5.264,1.613c-0.679,1.953-0.679,1.953-0.679,1.953s-2.717,0.425-3.651-1.443
			c-0.934-1.868-0.934-2.826-0.934-2.826s-2.356,0.704-4.489-1.164c-2.133-1.868-4.557-4.925-4.619-4.925s-1.08,5.264-4.647,8.491
			c-3.566,3.226-5.519,4.755-5.859,5.264C113.921,127.022,115.139,132.153,115.139,132.153z"/>
		
			<path style="fill:#5F6FB8;stroke:#000000;stroke-width:0.5;stroke-linecap:round;stroke-linejoin:round;stroke-miterlimit:10;" d="
			M111.098,127.998c0,0,1.848-0.73,2.829-1.441"/>
		
			<path style="fill:#5F6FB8;stroke:#000000;stroke-width:0.5;stroke-linecap:round;stroke-linejoin:round;stroke-miterlimit:10;" d="
			M115.237,117.86c0,0,1.572-4.61,5.553-5.082c3.982-0.472,3.982-0.472,3.982-0.472l-2.148-1.1"/>
		
			<path style="fill:#5F6FB8;stroke:#000000;stroke-width:0.5;stroke-linecap:round;stroke-linejoin:round;stroke-miterlimit:10;" d="
			M133.364,111.521c0,0,3.615,1.205,3.824,3.301c0.21,2.096,0.471,1.991,0.471,1.991"/>
		
			<circle style="stroke:#000000;stroke-width:0.5;stroke-linecap:round;stroke-linejoin:round;stroke-miterlimit:10;" cx="126.764" cy="127.696" r="0.648"/>
		
			<circle style="stroke:#000000;stroke-width:0.5;stroke-linecap:round;stroke-linejoin:round;stroke-miterlimit:10;" cx="118.176" cy="130.825" r="0.648"/>
		
			<path style="fill:#FFFFFF;stroke:#000000;stroke-width:0.5;stroke-linecap:round;stroke-linejoin:round;stroke-miterlimit:10;" d="
			M128.309,136.464l-4.564,2.192c0,0,0.611,1.976,2.587,1.581C128.309,139.842,128.633,137.686,128.309,136.464z"/>
		<path style="fill:none;stroke:#000000;stroke-width:0.5;stroke-linecap:round;stroke-linejoin:round;stroke-miterlimit:10;" d="
			M127.412,120.287c0,0-2.198-0.34-3.104,0.962"/>
		<path style="fill:none;stroke:#000000;stroke-width:0.5;stroke-linecap:round;stroke-linejoin:round;stroke-miterlimit:10;" d="
			M116.101,125.777c0,0,0.749-2.094,2.723-2.321"/>
		<path style="stroke:#000000;stroke-width:0.5;stroke-linecap:round;stroke-linejoin:round;stroke-miterlimit:10;" d="
			M141.712,134.969c0,0-1.326,4.393-2.205,6.94c-0.878,2.547-7.979,7.472-7.979,7.472l-1.063-5.258c0,0,4.348-2.265,7.812-4.985
			C141.742,136.419,141.712,134.969,141.712,134.969z"/>
		
			<path style="fill:#B85FAB;stroke:#000000;stroke-width:0.5;stroke-linecap:round;stroke-linejoin:round;stroke-miterlimit:10;" d="
			M159.804,164.985c-0.57,0-9.316,4.563-10.647,7.225c-1.331,2.662-10.879,55.707-10.879,55.707l2.605-33.272"/>
		
			<path style="fill:#B85FAB;stroke:#000000;stroke-width:0.5;stroke-linecap:round;stroke-linejoin:round;stroke-miterlimit:10;" d="
			M165.508,189.322c-0.19,1.141-3.993,41.828-5.704,47.341c-1.711,5.514-13.886,18.632-18.921,20.153
			c-5.035,1.521-17.14-0.19-20.879-3.232c-3.739-3.042-11.534-10.077-11.534-10.077l-0.952-2.282l-7.033-6.464l3.612-8.746
			l9.83,1.901c0,0,3.498-1.521,4.249-1.521s21.848,2.472,22.707,2.472c0.859,0,10.175,0.38,12.076,1.331"/>
		
			<path style="fill:#B85FAB;stroke:#000000;stroke-width:0.5;stroke-linecap:round;stroke-linejoin:round;stroke-miterlimit:10;" d="
			M103.478,198.06c0.453,0.679,9.239,22.641,9.035,21.962c-0.205-0.679-4.978-23.547-4.516-24.906
			c0.462-1.359,3.101-18.792,3.101-18.792"/>
		
			<path style="fill:#B85FAB;stroke:#000000;stroke-width:0.5;stroke-linecap:round;stroke-linejoin:round;stroke-miterlimit:10;" d="
			M138.278,162.288c0,0,8.005-4.984,9.029-7.259"/>
		
			<path style="fill:#B85FAB;stroke:#000000;stroke-width:0.5;stroke-linecap:round;stroke-linejoin:round;stroke-miterlimit:10;" d="
			M127.412,159.146c-0.317,0.325,0.813,4.773,1.006,4.878c0.193,0.106-0.584-1.303-1.062-1.736"/>
		
			<line style="fill:#B85FAB;stroke:#000000;stroke-width:0.5;stroke-linecap:round;stroke-linejoin:round;stroke-miterlimit:10;" x1="113.927" y1="227.917" x2="107.518" y2="241.226"/>
		
			<path style="fill:#5F6FB8;stroke:#000000;stroke-width:0.5;stroke-linecap:round;stroke-linejoin:round;stroke-miterlimit:10;" d="
			M76.33,210.221l7.857,19.786c0,0,0.568,1.325,1.136,1.42c0.568,0.095,11.12-0.379,11.335-0.473
			c0.215-0.095,1.256-0.379,1.256-1.041c0-0.663-6.561-20.571-6.561-20.571s-0.437-1.581-1.766-1.676
			c-1.329-0.095-12.595,1.515-12.595,1.515S75.979,209.338,76.33,210.221z"/>
		
			<path style="fill:#FFC6C2;stroke:#000000;stroke-width:0.5;stroke-linecap:round;stroke-linejoin:round;stroke-miterlimit:10;" d="
			M103.728,226.909c0,0-2-1.833-2.225-2.582c-0.225-0.75-1.649-2.998-2.923-3.897c-1.274-0.899-2.998-1.049-2.998-1.049l1.349,3.764
			l-7.345-3.764c0,0,0,2.923,0.375,3.298c0.375,0.375,2.248,2.923,2.248,2.923s0.6,5.021,0.899,5.396
			c0.3,0.375,7.375,3.765,7.375,3.765L103.728,226.909z"/>
		
			<path style="fill:#FFC6C2;stroke:#000000;stroke-width:0.5;stroke-linecap:round;stroke-linejoin:round;stroke-miterlimit:10;" d="
			M78.938,230.485c0,0-3.291-9.082-3.141-9.756c0.15-0.675,1.038-2.323,1.568-2.848s3.903-4.572,3.903-4.572
			s0.375,1.724,0.375,2.098c0,0.375-1.499,2.698-1.649,2.923c-0.15,0.225,1.574,2.099,1.649,2.698
			c0.075,0.6,1.363,1.872,1.287,2.803c-0.075,0.931,0.439,2.144,0.003,3.239c-0.436,1.094-1.092,2.447-1.092,2.447L78.938,230.485z"
			/>
		
			<path style="fill:#B85FAB;stroke:#000000;stroke-width:0.5;stroke-linecap:round;stroke-linejoin:round;stroke-miterlimit:10;" d="
			M112.516,268.454c0,0,16.494,0.292,18.687,0c2.193-0.293,31.595-6.771,31.595-6.771"/>
		
			<path style="fill:#5F6FB8;stroke:#000000;stroke-width:0.5;stroke-linecap:round;stroke-linejoin:round;stroke-miterlimit:10;" d="
			M162.12,273.683c0,0-1.922,16.517-3.661,20.383c-1.74,3.866-20.801,24.547-20.801,24.547l-4.661,19.908l8.26,8.698l-10.631,14.883
			l-2.319-2.706l-15.656,64.556l-14.109-1.933l6.958-74.027c0,0-16.429-13.53-12.37-24.547s15.656-20.294,15.656-20.294
			l5.142-23.354L162.12,273.683z"/>
		
			<line style="fill:#5F6FB8;stroke:#000000;stroke-width:0.5;stroke-linecap:round;stroke-linejoin:round;stroke-miterlimit:10;" x1="107.518" y1="304.229" x2="125.987" y2="283.049"/>
		
			<polyline style="fill:#5F6FB8;stroke:#000000;stroke-width:0.5;stroke-linecap:round;stroke-linejoin:round;stroke-miterlimit:10;" points="
			137.658,318.612 124.835,329.243 132.996,338.52 		"/>
		
			<line style="fill:#5F6FB8;stroke:#000000;stroke-width:0.5;stroke-linecap:round;stroke-linejoin:round;stroke-miterlimit:10;" x1="105.499" y1="347.991" x2="129.098" y2="360.318"/>
		
			<line style="fill:#5F6FB8;stroke:#000000;stroke-width:0.5;stroke-linecap:round;stroke-linejoin:round;stroke-miterlimit:10;" x1="120.596" y1="355.877" x2="133.816" y2="339.384"/>
		
			<line style="fill:#5F6FB8;stroke:#000000;stroke-width:0.5;stroke-linecap:round;stroke-linejoin:round;stroke-miterlimit:10;" x1="99.701" y1="409.68" x2="116.536" y2="407.929"/>
		
			<polygon style="fill:#FFC6C2;stroke:#000000;stroke-width:0.5;stroke-linecap:round;stroke-linejoin:round;stroke-miterlimit:10;" points="
			133.081,358.664 137.658,361.705 144.168,352.086 140.704,347.991 		"/>
		
			<path style="fill:#B85FAB;stroke:#000000;stroke-width:0.5;stroke-linecap:round;stroke-linejoin:round;stroke-miterlimit:10;" d="
			M137.658,361.705c0,0,8.476,10.227,8.848,11.251c0.372,1.024,3.165,20.666,4.096,21.69c0.931,1.024,5.772,4.189,5.772,4.189
			s0.652-34.909,0.652-35.188s-12.857-11.561-12.857-11.561L137.658,361.705z"/>
		
			<path style="fill:#B85FAB;stroke:#000000;stroke-width:0.5;stroke-linecap:round;stroke-linejoin:round;stroke-miterlimit:10;" d="
			M110.95,423.951l-6.453,21.638H74.61c0,0,1.358-3.906,8.321-6.113c6.962-2.207,11.547-4.075,13.075-6.962
			c1.528-2.887,3.694-10.336,3.694-10.336L110.95,423.951z"/>
		
			<polygon style="fill:#FFEEED;stroke:#000000;stroke-width:0.5;stroke-linecap:round;stroke-linejoin:round;stroke-miterlimit:10;" points="
			154.996,361.705 154.187,397.366 156.373,398.835 157.025,363.647 		"/>
		
			<polygon style="fill:#FFEEED;stroke:#000000;stroke-width:0.5;stroke-linecap:round;stroke-linejoin:round;stroke-miterlimit:10;" points="
			148.984,387.545 154.424,386.927 154.187,397.366 150.602,394.646 		"/>
		
			<polygon style="fill:#FFEEED;stroke:#000000;stroke-width:0.5;stroke-linecap:round;stroke-linejoin:round;stroke-miterlimit:10;" points="
			104.951,444.066 76.201,444.066 74.61,445.588 104.497,445.588 		"/>
		
			<path style="fill:#FFEEED;stroke:#000000;stroke-width:0.5;stroke-linecap:round;stroke-linejoin:round;stroke-miterlimit:10;" d="
			M83.746,439.214c0,0,2.773,0.681,3.01,4.852H76.201C76.201,444.066,78.008,440.271,83.746,439.214z"/>
		
			<path style="fill:#5F6FB8;stroke:#000000;stroke-width:0.5;stroke-linecap:round;stroke-linejoin:round;stroke-miterlimit:10;" d="
			M146.462,276.083c0,0,4.569,7.424,7.996,8.11c3.427,0.685,5.346,0,5.346,0"/>
		<path style="fill:none;stroke:#000000;stroke-width:0.5;stroke-linecap:round;stroke-linejoin:round;stroke-miterlimit:10;" d="
			M150.189,281.065c0,0-36.615,41.41-37.672,41.75c-1.057,0.34-2.361,5.773-1.794,6.453c0.567,0.679,16.579,17.491,16.579,17.491"/>
		
			<line style="fill:#5F6FB8;stroke:#000000;stroke-width:0.5;stroke-linecap:round;stroke-linejoin:round;stroke-miterlimit:10;" x1="116.536" y1="353.756" x2="109.138" y2="408.804"/>
	</g>
	<g>
		
			<path style="fill:#B85FAB;stroke:#000000;stroke-width:0.5;stroke-linecap:round;stroke-linejoin:round;stroke-miterlimit:10;" d="
			M369.232,235.166c0,0,6.738,89.131,7.542,92.618c0.805,3.487,16.362,71.885,16.362,71.885l-11.029,4.56l-28.052-61.156
			l-7.117-97.366l10.6-15.557L369.232,235.166z"/>
		
			<path style="fill:#B85FAB;stroke:#000000;stroke-width:0.5;stroke-linecap:round;stroke-linejoin:round;stroke-miterlimit:10;" d="
			M367.945,233.104l-38.574,1.466c0,0-10.535,19.451-9.73,33.667c0.805,14.216,25.213,47.476,25.213,47.476
			s-5.633,13.411-6.438,20.117c-0.805,6.706-3.755,68.398-3.755,68.398l10.193-2.414c0,0,28.7-85.028,29.237-88.247
			c0.537-3.219-15.941-57.937-15.941-57.937"/>
		
			<path style="fill:#FFC6C2;stroke:#000000;stroke-width:0.5;stroke-linecap:round;stroke-linejoin:round;stroke-miterlimit:10;" d="
			M378.268,171.886c0,0,9.033,6.294,7.353,15.365l-6.4,25.653l-8.053,3.587c0,0,0.463-40.532,0.37-40.902
			C371.447,175.218,378.268,171.886,378.268,171.886z"/>
		
			<path style="fill:#5F6FB8;stroke:#000000;stroke-width:0.5;stroke-linecap:round;stroke-linejoin:round;stroke-miterlimit:10;" d="
			M382.557,212.673l2.45-3.346c0,0,2.515-3.578,3.277-3.687c0.762-0.109,7.403,0,7.403,0s1.306-0.544,0,2.068
			c-1.306,2.613-7.294,10.451-7.294,10.451s-0.317,1.742-2.772,1.96c-2.454,0.218-7.353,0-7.353,0L382.557,212.673z"/>
		
			<path style="fill:#5F6FB8;stroke:#000000;stroke-width:0.5;stroke-linecap:round;stroke-linejoin:round;stroke-miterlimit:10;" d="
			M340.467,168.073l-0.967,0.439l-10.128,4.594c0,0,10.903-1.386,11.095,8.515c0.192,9.901,1.578,51.484,1.578,51.484h26.301
			c0,0,9.798-31.682,10.362-40.593s-7.137-21.584-7.137-21.584l-10.912,2.178"/>
		
			<path style="fill:#FFC6C2;stroke:#000000;stroke-width:0.5;stroke-linecap:round;stroke-linejoin:round;stroke-miterlimit:10;" d="
			M367.265,152.043c0,0-1.508,7.654-0.812,10.553c0.696,2.899,3.943,9.278,3.943,9.278s-12.757,2.435-15.772,2.203
			c-3.015-0.232-7.074-10.553-7.306-11.481c-0.232-0.928-1.392-21.686,1.971-25.165s7.074-3.943,7.074-3.943L367.265,152.043z"/>
		
			<path style="fill:#FFC6C2;stroke:#000000;stroke-width:0.5;stroke-linecap:round;stroke-linejoin:round;stroke-miterlimit:10;" d="
			M350.682,133.256c1.16-3.827,7.422-10.553,17.457-11.249c10.035-0.696,12.811,6.146,13.043,12.873
			c0.232,6.726-4.871,17.859-12.293,18.903s-13.8-4.639-13.8-4.639"/>
		
			<path style="fill:#FFC6C2;stroke:#000000;stroke-width:0.5;stroke-linecap:round;stroke-linejoin:round;stroke-miterlimit:10;" d="
			M352.189,134.763c0,0-3.827-4.871-6.494,0c-2.667,4.871,1.508,9.161,4.523,8.814"/>
		
			<path style="fill:#FFC6C2;stroke:#000000;stroke-width:0.5;stroke-linecap:round;stroke-linejoin:round;stroke-miterlimit:10;" d="
			M380.768,139.039c0,0,1.922-1.638,2.385,0c0.464,1.638-2.182,6.265-4.445,5.912L380.768,139.039z"/>
		
			<polyline style="fill:#FA7D64;stroke:#000000;stroke-width:0.5;stroke-linecap:round;stroke-linejoin:round;stroke-miterlimit:10;" points="
			369.941,138.311 371.57,142.901 369.941,141.272 		"/>
		<path style="stroke:#000000;stroke-width:0.5;stroke-linecap:round;stroke-linejoin:round;stroke-miterlimit:10;" d="
			M355.763,149.689c0,0,6.472,4.783,12.583,4.101c0,0-1.916,3.313-1.993,4.807c-0.077,1.494-0.081,2.108-0.081,2.108
			S356.581,155.13,355.763,149.689z"/>
		<path style="stroke:#000000;stroke-width:0.4167;stroke-linecap:round;stroke-linejoin:round;stroke-miterlimit:10;" d="
			M366.662,135.853c0,0.401-0.325,0.726-0.726,0.726c-0.401,0-0.726-0.325-0.726-0.726c0-0.401,0.325-0.726,0.726-0.726
			C366.336,135.126,366.662,135.452,366.662,135.853z"/>
		<path style="stroke:#000000;stroke-width:0.4167;stroke-linecap:round;stroke-linejoin:round;stroke-miterlimit:10;" d="
			M374.822,136.339c0,0.401-0.325,0.726-0.726,0.726s-0.726-0.325-0.726-0.726c0-0.401,0.325-0.726,0.726-0.726
			S374.822,135.938,374.822,136.339z"/>
		<circle style="fill:#FA7D64;" cx="364.827" cy="139.603" r="1.835"/>
		<path style="fill:#FA7D64;" d="M376.228,140.606c0,1.013-0.821,1.835-1.835,1.835c-1.013,0-1.835-0.822-1.835-1.835
			c0-1.013,0.822-1.835,1.835-1.835C375.406,138.771,376.228,139.593,376.228,140.606z"/>
		
			<path style="fill:#FFC6C2;stroke:#000000;stroke-width:0.5;stroke-linecap:round;stroke-linejoin:round;stroke-miterlimit:10;" d="
			M365.209,142.441c0,0,1.705,3.404,5.546,3.336"/>
		
			<path style="fill:#B85FAB;stroke:#000000;stroke-width:0.5;stroke-linecap:round;stroke-linejoin:round;stroke-miterlimit:10;" d="
			M349.436,132.738c0,0,4.027,3.215,9.863,2.388c5.835-0.827,11.432-4.187,14.071-6.751c2.639-2.564,3.328-4.309,3.328-4.309
			s-8.558-5.239-15.808-2.852c-7.25,2.387-12.289,8.311-12.908,9.46c-0.619,1.149-0.707,1.924-0.707,1.924L349.436,132.738z"/>
		
			<path style="fill:#B85FAB;stroke:#000000;stroke-width:0.5;stroke-linecap:round;stroke-linejoin:round;stroke-miterlimit:10;" d="
			M349.485,143.597c0,0,2.829,4.495,7.692,8.385c4.863,3.89,6.189,13.439,6.366,19.274c0.177,5.835,0.682,17.152-4.875,18.124
			c-5.558,0.973-6.7-5.305-7.985-9.195c-1.285-3.89-8.182-8.488-10.215-12.113c-2.034-3.625-2.387-4.421-0.973-8.488
			c1.415-4.067,6.026-18.979,6.026-18.979S345.86,142.992,349.485,143.597z"/>
		
			<path style="fill:#B85FAB;stroke:#000000;stroke-width:0.5;stroke-linecap:round;stroke-linejoin:round;stroke-miterlimit:10;" d="
			M371.57,152.939c0,0-0.677,6.177,0.988,9.192c1.665,3.015,12.102,8.93,12.682,13.336c0.58,4.407,0.58,8.002-0.58,8.582
			c-1.16,0.58-9.13-6.61-11.291-9.394c-2.161-2.783-2.508-1.041-4.595-6.145c-2.087-5.104-3.263-8.27-2.272-10.69
			c0.991-2.42,1.844-4.031,1.844-4.031L371.57,152.939z"/>
		
			<path style="fill:#FFC6C2;stroke:#000000;stroke-width:0.5;stroke-linecap:round;stroke-linejoin:round;stroke-miterlimit:10;" d="
			M329.372,173.106c0,0,10.967-2.247,11.82,8.27c0.853,10.517,0.309,35.114,0.309,35.114l31.057-3.562c0,0,8.266-4.558,8.923-4.499
			c0.657,0.06,3.526,0.896,3.526,0.896l-2.45,3.346c0,0,3.585,0.956,3.884,0.896c0.299-0.06,3.824-0.717,3.944-0.478
			c0.119,0.239-0.657,1.315-1.374,1.912c-0.717,0.598-6.394,3.287-6.872,3.645c-0.478,0.358-13.725,2.28-14.404,2.619
			c-0.679,0.34-25.245,15.736-31.811,15.736s-10.755-5.774-11.094-13.245c-0.34-7.472,0-43.132,0-43.132
			S326.493,174.412,329.372,173.106z"/>
		
			<path style="fill:#FFC6C2;stroke:#000000;stroke-width:0.5;stroke-linecap:round;stroke-linejoin:round;stroke-miterlimit:10;" d="
			M341.501,216.49c0,0-6.823,0.702-9.993,4.211"/>
		
			<path style="fill:#B85FAB;stroke:#000000;stroke-width:0.5;stroke-linecap:round;stroke-linejoin:round;stroke-miterlimit:10;" d="
			M352.189,134.247c0,0,0.483,3.716,1.865,3.687c1.382-0.029,4.613-2.672,4.613-2.672L352.189,134.247z"/>
		
			<path style="fill:#FFC6C2;stroke:#000000;stroke-width:0.5;stroke-linecap:round;stroke-linejoin:round;stroke-miterlimit:10;" d="
			M367.945,233.104c0,0,4.126,6.701,4.519,6.799c0.393,0.098,10.618-6.484,13.365-9.235c2.747-2.751,10.438-14.178,10.438-14.178
			s-2.484-9.008-2.779-9.106c-0.295-0.098-1.375,1.179-1.375,1.768c0,0.59-0.098,2.849-0.098,2.849s-4.288,8.273-4.747,8.214
			c-0.46-0.059-2.226,0.023-2.621,0c-0.395-0.023-6.379-0.097-6.379-0.097l0.469-0.814l-6.637,1.14L367.945,233.104z"/>
		
			<path style="fill:#B85FAB;stroke:#000000;stroke-width:0.5;stroke-linecap:round;stroke-linejoin:round;stroke-miterlimit:10;" d="
			M348.516,145.778c0,0,2.928,6.97,3.673,13.284c0.745,6.314,0.745,10.295,0.745,10.295"/>
		
			<path style="fill:#B85FAB;stroke:#000000;stroke-width:0.5;stroke-linecap:round;stroke-linejoin:round;stroke-miterlimit:10;" d="
			M358.151,168.073c0,0,1.784,6.089,2.059,9.658"/>
		
			<path style="fill:#B85FAB;stroke:#000000;stroke-width:0.5;stroke-linecap:round;stroke-linejoin:round;stroke-miterlimit:10;" d="
			M354.055,131.334c0,0,6.545-0.412,11.155-2.471"/>
		
			<path style="fill:#B85FAB;stroke:#000000;stroke-width:0.5;stroke-linecap:round;stroke-linejoin:round;stroke-miterlimit:10;" d="
			M372.113,121.958c0,0-6.137,4.297-7.922,4.572"/>
		
			<line style="fill:#B85FAB;stroke:#000000;stroke-width:0.5;stroke-linecap:round;stroke-linejoin:round;stroke-miterlimit:10;" x1="375.63" y1="390.108" x2="389.931" y2="385.581"/>
		
			<line style="fill:#B85FAB;stroke:#000000;stroke-width:0.5;stroke-linecap:round;stroke-linejoin:round;stroke-miterlimit:10;" x1="335.517" y1="386.787" x2="349.917" y2="386.787"/>
		
			<path style="fill:#5F6FB8;stroke:#000000;stroke-width:0.5;stroke-linecap:round;stroke-linejoin:round;stroke-miterlimit:10;" d="
			M334.662,404.228l-5.958,29.062h33.822c0,0,0.184-3.125-1.838-4.595c-2.022-1.47-17.562-9.027-17.971-9.936
			c-0.41-0.909,2.138-16.945,2.138-16.945L334.662,404.228z"/>
		
			<path style="fill:#5F6FB8;stroke:#000000;stroke-width:0.5;stroke-linecap:round;stroke-linejoin:round;stroke-miterlimit:10;" d="
			M382.107,404.228c0,0,0.048,0.197,0.134,0.549c0.658,2.697,3.516,14.464,3.629,15.707c0.128,1.406,1.278,9.329,1.278,9.329
			l37.829-1.15c0,0-1.406-4.984-2.812-5.496c-1.406-0.511-13.803-5.265-15.336-6.147c-1.534-0.882-13.694-17.353-13.694-17.353
			L382.107,404.228z"/>
		
			<path style="fill:#FFEEED;stroke:#000000;stroke-width:0.5;stroke-linecap:round;stroke-linejoin:round;stroke-miterlimit:10;" d="
			M412.768,419.531c0,0-3.931,2.592-4.896,3.75c-0.964,1.157-2.508,5.979-2.508,5.979l19.613-0.596l-2.812-5.496L412.768,419.531z"
			/>
		
			<polygon style="fill:#FFEEED;stroke:#000000;stroke-width:0.5;stroke-linecap:round;stroke-linejoin:round;stroke-miterlimit:10;" points="
			386.659,426.402 406.372,426.402 405.365,429.26 387.148,429.814 		"/>
		
			<path style="fill:#FFEEED;stroke:#000000;stroke-width:0.5;stroke-linecap:round;stroke-linejoin:round;stroke-miterlimit:10;" d="
			M352.783,424.395c0,0-3.714,3.877-4.957,4.865c-1.243,0.988-2.208,4.031-2.208,4.031h16.909c0,0,0.101-4.3-0.869-4.448
			C360.688,428.695,352.783,424.395,352.783,424.395z"/>
	</g>
</g>
</svg>
